<svg width="24" height="24" viewBox="0 0 24 24" fill="none" xmlns="http://www.w3.org/2000/svg">
<g id="Group 1411">
<g id="Group 5">
<path id="Ellipse 29" d="M7.55556 4.77778C7.55556 6.3119 6.3119 7.55556 4.77778 7.55556C3.24365 7.55556 2 6.3119 2 4.77778C2 3.24365 3.24365 2 4.77778 2C6.3119 2 7.55556 3.24365 7.55556 4.77778Z" fill="#334D6E"/>
<path id="Ellipse 30" d="M21.9999 4.77778C21.9999 6.3119 20.7562 7.55556 19.2221 7.55556C17.688 7.55556 16.4443 6.3119 16.4443 4.77778C16.4443 3.24365 17.688 2 19.2221 2C20.7562 2 21.9999 3.24365 21.9999 4.77778Z" fill="#334D6E"/>
<path id="Ellipse 31" d="M7.55556 19.2221C7.55556 20.7562 6.3119 21.9999 4.77778 21.9999C3.24365 21.9999 2 20.7562 2 19.2221C2 17.688 3.24365 16.4443 4.77778 16.4443C6.3119 16.4443 7.55556 17.688 7.55556 19.2221Z" fill="#334D6E"/>
<path id="Ellipse 32" d="M21.9999 19.2221C21.9999 20.7562 20.7562 21.9999 19.2221 21.9999C17.688 21.9999 16.4443 20.7562 16.4443 19.2221C16.4443 17.688 17.688 16.4443 19.2221 16.4443C20.7562 16.4443 21.9999 17.688 21.9999 19.2221Z" fill="#334D6E"/>
<path id="Rectangle 58 (Stroke)" fill-rule="evenodd" clip-rule="evenodd" d="M17.8891 5.11133H6.11133C5.55904 5.11133 5.11133 5.55904 5.11133 6.11133V17.8891C5.11133 18.4414 5.55904 18.8891 6.11133 18.8891H17.8891C18.4414 18.8891 18.8891 18.4414 18.8891 17.8891V6.11133C18.8891 5.55904 18.4414 5.11133 17.8891 5.11133ZM6.11133 3.11133C4.45447 3.11133 3.11133 4.45447 3.11133 6.11133V17.8891C3.11133 19.546 4.45447 20.8891 6.11133 20.8891H17.8891C19.546 20.8891 20.8891 19.546 20.8891 17.8891V6.11133C20.8891 4.45447 19.546 3.11133 17.8891 3.11133H6.11133Z" fill="#334D6E"/>
</g>
</g>
</svg>
