<svg width="24" height="24" viewBox="0 0 24 24" fill="none" xmlns="http://www.w3.org/2000/svg">
<g id="Group">
<path id="Vector" d="M18.3643 15.5362L16.9503 14.1202L18.3643 12.7062C18.8319 12.2427 19.2034 11.6913 19.4573 11.0838C19.7113 10.4763 19.8428 9.82465 19.8442 9.1662C19.8457 8.50775 19.717 7.8555 19.4657 7.24689C19.2144 6.63828 18.8454 6.08531 18.3798 5.61971C17.9142 5.15412 17.3612 4.78507 16.7526 4.53376C16.144 4.28245 15.4917 4.15382 14.8333 4.15526C14.1748 4.1567 13.5232 4.28819 12.9157 4.54216C12.3082 4.79614 11.7568 5.1676 11.2933 5.63523L9.87926 7.05023L8.46426 5.63623L9.88026 4.22223C11.1931 2.90941 12.9736 2.17188 14.8303 2.17188C16.6869 2.17188 18.4674 2.90941 19.7803 4.22223C21.0931 5.53505 21.8306 7.31562 21.8306 9.17223C21.8306 11.0288 21.0931 12.8094 19.7803 14.1222L18.3653 15.5362H18.3643ZM15.5363 18.3642L14.1213 19.7782C12.8084 21.0911 11.0279 21.8286 9.17126 21.8286C7.31465 21.8286 5.53408 21.0911 4.22126 19.7782C2.90843 18.4654 2.1709 16.6848 2.1709 14.8282C2.1709 12.9716 2.90843 11.1911 4.22126 9.87823L5.63626 8.46423L7.05026 9.88023L5.63626 11.2942C5.16863 11.7578 4.79716 12.3091 4.54318 12.9166C4.28921 13.5241 4.15773 14.1758 4.15628 14.8343C4.15484 15.4927 4.28347 16.145 4.53478 16.7536C4.78609 17.3622 5.15514 17.9152 5.62074 18.3808C6.08633 18.8463 6.63931 19.2154 7.24791 19.4667C7.85652 19.718 8.50877 19.8466 9.16722 19.8452C9.82567 19.8438 10.4774 19.7123 11.0849 19.4583C11.6924 19.2043 12.2437 18.8329 12.7073 18.3652L14.1213 16.9512L15.5363 18.3652V18.3642ZM14.8283 7.75723L16.2433 9.17223L9.17226 16.2422L7.75726 14.8282L14.8283 7.75823V7.75723Z" fill="#334D6E"/>
</g>
</svg>
