<svg width="20" height="20" viewBox="0 0 20 20" fill="none" xmlns="http://www.w3.org/2000/svg">
<path id="icon/action/offline_bolt_24px" fill-rule="evenodd" clip-rule="evenodd" d="M0 10C0 4.47896 4.47896 0 10 0C15.521 0 20 4.47896 20 10C20 15.521 15.521 20 10 20C4.47896 20 0 15.521 0 10ZM9.48117 11.7436V15.8919C9.48117 16.423 10.1926 16.5933 10.4331 16.1124L14.0002 8.9781C14.1605 8.64744 13.92 8.25666 13.5493 8.25666H11.0042V4.05826C11.0042 3.5272 10.2928 3.35686 10.0623 3.8278L6.37496 11.0122C6.1946 11.3428 6.4451 11.7436 6.81584 11.7436H9.48117Z" fill="#334D6E"/>
</svg>
